<svg width="117" height="126" viewBox="0 0 117 126" fill="none" xmlns="http://www.w3.org/2000/svg">
<path d="M72.1729 65.4727C72.1729 68.3789 71.7979 70.9414 71.0479 73.1602C70.3291 75.3789 69.2979 77.3008 67.9541 78.9258C66.6416 80.5508 65.0791 81.9102 63.2666 83.0039C61.4541 84.0977 59.4697 84.9727 57.3135 85.6289C55.1885 86.2852 52.9229 86.7539 50.5166 87.0352C48.1416 87.3164 45.7197 87.457 43.251 87.457C40.001 87.457 37.001 87.207 34.251 86.707C31.501 86.2383 28.9072 85.4883 26.4697 84.457C24.0635 83.3945 21.7354 82.0352 19.4854 80.3789C17.2666 78.7227 15.0479 76.707 12.8291 74.332L22.3916 64.6289C23.2666 66.7852 24.4697 68.7852 26.001 70.6289C27.5322 72.4414 29.2041 74.0039 31.0166 75.3164C32.8604 76.6289 34.7666 77.6602 36.7354 78.4102C38.7041 79.1602 40.5635 79.5352 42.3135 79.5352C44.376 79.5352 46.3135 79.3945 48.126 79.1133C49.9385 78.8008 51.5166 78.3008 52.8604 77.6133C54.2041 76.9258 55.251 76.0195 56.001 74.8945C56.7822 73.7383 57.1729 72.3008 57.1729 70.582C57.1729 69.2695 56.876 68.1445 56.2822 67.207C55.6885 66.2695 54.9072 65.4727 53.9385 64.8164C53.001 64.1289 51.9229 63.5508 50.7041 63.082C49.4854 62.6133 48.2354 62.2227 46.9541 61.9102C45.7041 61.5664 44.4697 61.2695 43.251 61.0195C42.0322 60.7383 40.9541 60.457 40.0166 60.1758C38.1729 59.6445 36.251 59.082 34.251 58.4883C32.251 57.8633 30.2822 57.1602 28.3447 56.3789C26.4072 55.5977 24.5635 54.707 22.8135 53.707C21.0947 52.6758 19.5791 51.4727 18.2666 50.0977C16.9541 48.6914 15.9072 47.082 15.126 45.2695C14.3447 43.4258 13.9541 41.3164 13.9541 38.9414C13.9541 36.0977 14.2979 33.582 14.9854 31.3945C15.7041 29.1758 16.7041 27.2539 17.9854 25.6289C19.2666 24.0039 20.7822 22.6445 22.5322 21.5508C24.2822 20.4258 26.2041 19.5352 28.2979 18.8789C30.3916 18.1914 32.6104 17.707 34.9541 17.4258C37.3291 17.1133 39.751 16.957 42.2197 16.957C45.5947 16.957 48.6572 17.2695 51.4072 17.8945C54.1885 18.5195 56.751 19.4102 59.0947 20.5664C61.4385 21.7227 63.5791 23.1133 65.5166 24.7383C67.4854 26.332 69.3291 28.1133 71.0479 30.082L61.4854 39.7852C60.7354 37.5352 59.6885 35.5039 58.3447 33.6914C57.0322 31.8789 55.5635 30.332 53.9385 29.0508C52.3135 27.7383 50.6104 26.7383 48.8291 26.0508C47.0479 25.332 45.3291 24.9727 43.6729 24.9727C41.5166 24.9727 39.5322 25.1289 37.7197 25.4414C35.9072 25.7227 34.3447 26.207 33.0322 26.8945C31.751 27.5508 30.751 28.457 30.0322 29.6133C29.3135 30.7383 28.9541 32.1445 28.9541 33.832C28.9541 35.1758 29.2197 36.3164 29.751 37.2539C30.2822 38.1914 30.9854 38.9883 31.8604 39.6445C32.7666 40.3008 33.7822 40.8477 34.9072 41.2852C36.0322 41.6914 37.1885 42.0508 38.376 42.3633C39.5947 42.6758 40.7822 42.957 41.9385 43.207C43.126 43.4258 44.2041 43.6758 45.1729 43.957C47.0479 44.4883 49.0166 45.0508 51.0791 45.6445C53.1416 46.2383 55.1729 46.9414 57.1729 47.7539C59.1729 48.5352 61.0791 49.4414 62.8916 50.4727C64.7041 51.5039 66.2979 52.7383 67.6729 54.1758C69.0479 55.582 70.1416 57.2227 70.9541 59.0977C71.7666 60.9414 72.1729 63.0664 72.1729 65.4727ZM102.642 64.9102C102.642 69.2539 102.079 73.6758 100.954 78.1758C99.8604 82.6445 98.3135 86.9727 96.3135 91.1602C94.3447 95.3789 91.9697 99.3164 89.1885 102.973C86.4072 106.629 83.3447 109.816 80.001 112.535L72.7822 108.176C74.6572 105.613 76.2979 102.707 77.7041 99.457C79.1104 96.207 80.2822 92.832 81.2197 89.332C82.1572 85.832 82.8604 82.3164 83.3291 78.7852C83.7979 75.2539 84.0322 71.8945 84.0322 68.707V18.5977H102.642V64.9102Z" fill="black"/>
<path d="M72.1729 65.4727C72.1729 68.3789 71.7979 70.9414 71.0479 73.1602C70.3291 75.3789 69.2979 77.3008 67.9541 78.9258C66.6416 80.5508 65.0791 81.9102 63.2666 83.0039C61.4541 84.0977 59.4697 84.9727 57.3135 85.6289C55.1885 86.2852 52.9229 86.7539 50.5166 87.0352C48.1416 87.3164 45.7197 87.457 43.251 87.457C40.001 87.457 37.001 87.207 34.251 86.707C31.501 86.2383 28.9072 85.4883 26.4697 84.457C24.0635 83.3945 21.7354 82.0352 19.4854 80.3789C17.2666 78.7227 15.0479 76.707 12.8291 74.332L22.3916 64.6289C23.2666 66.7852 24.4697 68.7852 26.001 70.6289C27.5322 72.4414 29.2041 74.0039 31.0166 75.3164C32.8604 76.6289 34.7666 77.6602 36.7354 78.4102C38.7041 79.1602 40.5635 79.5352 42.3135 79.5352C44.376 79.5352 46.3135 79.3945 48.126 79.1133C49.9385 78.8008 51.5166 78.3008 52.8604 77.6133C54.2041 76.9258 55.251 76.0195 56.001 74.8945C56.7822 73.7383 57.1729 72.3008 57.1729 70.582C57.1729 69.2695 56.876 68.1445 56.2822 67.207C55.6885 66.2695 54.9072 65.4727 53.9385 64.8164C53.001 64.1289 51.9229 63.5508 50.7041 63.082C49.4854 62.6133 48.2354 62.2227 46.9541 61.9102C45.7041 61.5664 44.4697 61.2695 43.251 61.0195C42.0322 60.7383 40.9541 60.457 40.0166 60.1758C38.1729 59.6445 36.251 59.082 34.251 58.4883C32.251 57.8633 30.2822 57.1602 28.3447 56.3789C26.4072 55.5977 24.5635 54.707 22.8135 53.707C21.0947 52.6758 19.5791 51.4727 18.2666 50.0977C16.9541 48.6914 15.9072 47.082 15.126 45.2695C14.3447 43.4258 13.9541 41.3164 13.9541 38.9414C13.9541 36.0977 14.2979 33.582 14.9854 31.3945C15.7041 29.1758 16.7041 27.2539 17.9854 25.6289C19.2666 24.0039 20.7822 22.6445 22.5322 21.5508C24.2822 20.4258 26.2041 19.5352 28.2979 18.8789C30.3916 18.1914 32.6104 17.707 34.9541 17.4258C37.3291 17.1133 39.751 16.957 42.2197 16.957C45.5947 16.957 48.6572 17.2695 51.4072 17.8945C54.1885 18.5195 56.751 19.4102 59.0947 20.5664C61.4385 21.7227 63.5791 23.1133 65.5166 24.7383C67.4854 26.332 69.3291 28.1133 71.0479 30.082L61.4854 39.7852C60.7354 37.5352 59.6885 35.5039 58.3447 33.6914C57.0322 31.8789 55.5635 30.332 53.9385 29.0508C52.3135 27.7383 50.6104 26.7383 48.8291 26.0508C47.0479 25.332 45.3291 24.9727 43.6729 24.9727C41.5166 24.9727 39.5322 25.1289 37.7197 25.4414C35.9072 25.7227 34.3447 26.207 33.0322 26.8945C31.751 27.5508 30.751 28.457 30.0322 29.6133C29.3135 30.7383 28.9541 32.1445 28.9541 33.832C28.9541 35.1758 29.2197 36.3164 29.751 37.2539C30.2822 38.1914 30.9854 38.9883 31.8604 39.6445C32.7666 40.3008 33.7822 40.8477 34.9072 41.2852C36.0322 41.6914 37.1885 42.0508 38.376 42.3633C39.5947 42.6758 40.7822 42.957 41.9385 43.207C43.126 43.4258 44.2041 43.6758 45.1729 43.957C47.0479 44.4883 49.0166 45.0508 51.0791 45.6445C53.1416 46.2383 55.1729 46.9414 57.1729 47.7539C59.1729 48.5352 61.0791 49.4414 62.8916 50.4727C64.7041 51.5039 66.2979 52.7383 67.6729 54.1758C69.0479 55.582 70.1416 57.2227 70.9541 59.0977C71.7666 60.9414 72.1729 63.0664 72.1729 65.4727ZM102.642 64.9102C102.642 69.2539 102.079 73.6758 100.954 78.1758C99.8604 82.6445 98.3135 86.9727 96.3135 91.1602C94.3447 95.3789 91.9697 99.3164 89.1885 102.973C86.4072 106.629 83.3447 109.816 80.001 112.535L72.7822 108.176C74.6572 105.613 76.2979 102.707 77.7041 99.457C79.1104 96.207 80.2822 92.832 81.2197 89.332C82.1572 85.832 82.8604 82.3164 83.3291 78.7852C83.7979 75.2539 84.0322 71.8945 84.0322 68.707V18.5977H102.642V64.9102Z" fill="url(#paint0_linear_254_37)"/>
<path d="M105.719 18.7107H74.2192V10.0857H105.719V18.7107Z" fill="url(#paint1_linear_254_37)"/>
<defs>
<linearGradient id="paint0_linear_254_37" x1="32.8595" y1="8.19522" x2="33.6918" y2="87.5842" gradientUnits="userSpaceOnUse">
<stop/>
<stop offset="1" stop-color="#F700FF"/>
</linearGradient>
<linearGradient id="paint1_linear_254_37" x1="119.854" y1="9.21946" x2="67.6099" y2="9.21946" gradientUnits="userSpaceOnUse">
<stop/>
<stop offset="1" stop-color="#F700FF"/>
</linearGradient>
</defs>
</svg>
